# AST/ASF file generated using VICON BodyLanguage
# -----------------------------------------------
:version 1.10
:name VICON
:units
  mass 1.0
  length 0.45
  angle deg
:documentation
   .ast/.asf automatically generated from VICON data using
   VICON BodyBuilder and BodyLanguage model FoxedUp or BRILLIANT.MOD
:root
   order TX TY TZ RX RY RZ
   axis XYZ
   position 0 0 0  
   orientation 0 0 0 
:bonedata
  begin
     id 1 
     name lhipjoint
     direction 0.716248 -0.617586 0.324924 
     length 2.63557 
     axis 0 0 0  XYZ
  end
  begin
     id 2 
     name lfemur
     direction 0.34202 -0.939693 0  
     length 7.01235  
     axis 0 0 20  XYZ
    dof rx ry rz
    limits (-160.0 20.0)
           (-70.0 70.0)
           (-60.0 70.0)
  end
  begin
     id 3 
     name ltibia
     direction 0.34202 -0.939693 0   
     length 8.14348   
     axis 0 0 20   XYZ
    dof rx
    limits (-10.0 170.0)
  end
  begin
     id 4 
     name lfoot
     direction 0.0982064 -0.26982 0.95789   
     length 1.99077   
     axis -90 7.62852e-016 20   XYZ
    dof rx rz
    limits (-45.0 90.0)
           (-70.0 20.0)
  end
  begin
     id 5 
     name ltoes
     direction 1.53511e-011 -4.21891e-011 1   
     length 0.99735   
     axis -90 7.62852e-016 20   XYZ
    dof rx
    limits (-90.0 20.0)
  end
  begin
     id 6 
     name rhipjoint
     direction -0.687828 -0.642391 0.337975   
     length 2.5338  
     axis 0 0 0  XYZ 
  end
  begin
     id 7 
     name rfemur
     direction -0.34202 -0.939693 0   
     length 6.90199   
     axis 0 0 -20   XYZ
    dof rx ry rz
    limits (-160.0 20.0)
           (-70.0 70.0)
           (-70.0 60.0)
  end
  begin
     id 8 
     name rtibia
     direction -0.34202 -0.939693 0   
     length 8.07725   
     axis 0 0 -20   XYZ
    dof rx
    limits (-10.0 170.0)
 end
 begin
     id 9 
     name rfoot
     direction -0.0912384 -0.250675 0.963762   
     length 2.11621  
     axis -90 -7.62852e-016 -20   XYZ
    dof rx rz
    limits (-45.0 90.0)
           (-20.0 70.0)
  end
  begin
     id 10 
     name rtoes
     direction -1.5359e-011 -4.21894e-011 1   
     length 1.06031   
     axis -90 -7.62852e-016 -20   XYZ
    dof rx
    limits (-90.0 20.0)
  end
  begin
     id 11 
     name lowerback
     direction -0.0403572 0.987953 -0.149396   
     length 2.05637   
     axis 0 0 0   XYZ
    dof rx ry rz
    limits (-20.0 45.0)
           (-30.0 30.0)
           (-30.0 30.0)
  end
  begin
     id 12 
     name upperback
     direction -0.00512151 0.997598 0.0690792   
     length 2.01086   
     axis 0 0 0   XYZ
    dof rx ry rz
    limits (-20.0 45.0)
           (-30.0 30.0)
           (-30.0 30.0)
  end
  begin
     id 13 
     name thorax
     direction 0.0136133 0.989392 0.14463   
     length 2.09035   
     axis 0 0 0   XYZ
    dof rx ry rz
    limits (-20.0 45.0)
           (-30.0 30.0)
           (-30.0 30.0)
  end
  begin
     id 14 
     name lowerneck
     direction 0.0250714 0.992811 0.11704   
     length 1.70806   
     axis 0 0 0   XYZ
    dof rx ry rz
    limits (-20.0 45.0)
           (-30.0 30.0)
           (-30.0 30.0)
  end
  begin
     id 15 
     name upperneck
     direction -0.0519205 0.998394 -0.0226787   
     length 1.6689   
     axis 0 0 0   XYZ
    dof rx ry rz
    limits (-20.0 45.0)
           (-30.0 30.0)
           (-30.0 30.0)
  end
  begin
     id 16
     name head
     direction -0.0201693 0.999547 -0.0223192  
     length 1.83412  
     axis 0 0 0   XYZ
    dof rx ry rz
    limits (-20.0 45.0)
           (-30.0 30.0)
           (-30.0 30.0)
  end
  begin
     id 17 
     name lclavicle
     direction 0.89585 0.444077 -0.0157448  
     length 3.39587  
     axis 0 0 0   XYZ
    dof ry rz
    limits (-20.0 10.0)
           (0.0 20.0)
  end
  begin
     id 18 
     name lhumerus
     direction 1 -4.48956e-011 1.99132e-028   
     length 5.79199   
     axis 180 -30 -90   XYZ
    dof rx ry rz
    limits (-60.0 90.0)
           (-90.0 90.0)
           (-90.0 90.0)
  end
  begin
     id 19
     name lradius
     direction 1 -4.48974e-011 8.72912e-028   
     length 3.49908   
     axis 180 -30 -90   XYZ
    dof rx
    limits (-10.0 170.0)
  end
  begin
     id 20
     name lwrist
     direction 1 -4.48994e-011 4.76442e-027   
     length 1.74954   
     axis -3.27502e-015 90 90   XYZ
    dof ry
    limits (-180.0 0.0)
 end
  begin
     id 21 
     name lhand
     direction 1 -4.48945e-011 9.531e-027   
     length 0.593861   
     axis -6.08098e-015 90 90   XYZ
    dof rx rz
    limits (-90.0 90.0)
           (-45.0 45.0)
  end
  begin
     id 22 
     name lfingers
     direction 1 -4.48945e-011 1.9062e-026   
     length 0.478786   
     axis -1.21619e-014 90 90   XYZ
    dof rx
    limits (0.0 90.0)
  end
  begin
     id 23
     name lthumb
     direction 0.707107 -6.34904e-011 0.707107   
     length 0.687444   
     axis -90 45 -9.86923e-015   XYZ
    dof rx rz
    limits (-45.0 45.0)
           (-45.0 45.0)
  end
  begin
     id 24 
     name rclavicle
     direction -0.940466 0.338394 0.0318182   
     length 3.51226  
     axis 0 0 0   XYZ 
    dof ry rz
    limits (-10.0 20.0)
           (-20.0 0.0)
  end
  begin
     id 25 
     name rhumerus
     direction -1 -4.48976e-011 2.0905e-027  
     length 5.73799   
     axis 180 30 90   XYZ
    dof rx ry rz
    limits (-90.0 60.0)
           (-90.0 90.0)
           (-90.0 90.0)
  end
  begin
     id 26 
     name rradius
     direction -1 -4.48968e-011 -9.39692e-029   
     length 3.57916   
     axis 180 30 90   XYZ
    dof rx
    limits (-10.0 170.0)
  end
  begin
     id 27 
     name rwrist
     direction -1 -4.48959e-011 4.7652e-027   
     length 1.78958   
     axis -3.27502e-015 -90 -90   XYZ
    dof ry
    limits (-180.0 0.0)
  end
  begin
     id 28
     name rhand
     direction -1 -4.49042e-011 9.5267e-027   
     length 0.615577   
     axis -6.08098e-015 -90 -90   XYZ
    dof rx rz
    limits (-90.0 90.0)
           (-45.0 45.0)
  end
  begin
     id 29
     name rfingers
     direction -1 -4.48935e-011 1.90629e-026   
     length 0.496294   
     axis -1.21619e-014 -90 -90   XYZ
    dof rx
    limits (0.0 90.0)
  end
  begin
     id 30
     name rthumb
     direction -0.707107 -6.34977e-011 0.707107   
     length 0.712582   
     axis -90 -45 9.86923e-015   XYZ
    dof rx rz
    limits (-45.0 45.0)
           (-45.0 45.0)
  end
:hierarchy
  begin
    root lhipjoint rhipjoint lowerback
    lhipjoint lfemur
    lfemur ltibia
    ltibia lfoot
    lfoot ltoes
    rhipjoint rfemur
    rfemur rtibia
    rtibia rfoot
    rfoot rtoes
    lowerback upperback
    upperback thorax
    thorax lowerneck lclavicle rclavicle
    lowerneck upperneck
    upperneck head
    lclavicle lhumerus
    lhumerus lradius
    lradius lwrist
    lwrist lhand lthumb
    lhand lfingers
    rclavicle rhumerus
    rhumerus rradius
    rradius rwrist
    rwrist rhand rthumb
    rhand rfingers
  end

#!OML:ASF H:\Terrain\Patient Classification 1\PaulMetrics\March17Take5\PaulMetrics.ASF
:FULLY-SPECIFIED
:DEGREES
612
root 8.72356 17.4756 7.51295 11.21 183.38 2.00491
lowerback -0.132515 1.8748 -1.70902
upperback -2.70604 2.40355 -0.324554
thorax -2.76007 1.20669 0.568552
lowerneck -5.49358 6.71305 6.44324
upperneck 8.70995 9.25504 -10.5459
head 4.29876 4.17966 -3.74801
rclavicle -3.51849e-014 1.31198e-014
rhumerus -40.9238 16.1952 -86.7161
rradius 57.9306
rwrist -11.1453
rhand -19.365 -35.4816
rfingers 7.12502
rthumb 6.9528 -65.3474
lclavicle -3.51849e-014 1.31198e-014
lhumerus -47.5081 -8.67971 83.423
lradius 33.9264
lwrist 16.4315
lhand -8.03655 -18.3336
lfingers 7.12502
lthumb 17.8737 10.865
rfemur 10.8559 8.12621 29.7492
rtibia 1.90833e-014
rfoot -14.3404 -9.27188
rtoes 6.05361
lfemur -43.0382 -5.31392 -17.4896
ltibia 23.6599
lfoot -15.0683 12.3567
ltoes -9.50649
613
root 8.70368 17.4561 7.35353 11.0629 183.4 1.96923
lowerback -0.0461441 1.74157 -1.94259
upperback -2.6295 2.22966 -0.169104
thorax -2.74137 1.12884 0.861215
lowerneck -5.77515 6.93001 6.06802
upperneck 8.88996 9.57115 -10.445
head 4.40592 4.31016 -3.62284
rclavicle -6.65929e-015 8.34896e-015
rhumerus -40.9339 16.705 -86.6828
rradius 57.9908
rwrist -11.0168
rhand -18.5295 -35.8843
rfingers 7.12502
rthumb 7.75928 -65.722
lclavicle -6.65929e-015 8.34896e-015
lhumerus -47.3985 -8.03945 83.466
lradius 33.7464
lwrist 16.4218
lhand -7.93475 -19.0787
lfingers 7.12502
lthumb 17.9716 10.111
rfemur 11.5722 7.5775 29.6498
rtibia -4.45278e-014
rfoot -14.2503 -8.7796
rtoes 4.37257
lfemur -42.9665 -5.04637 -17.901
ltibia 24.068
lfoot -14.219 12.1557
ltoes -14.5802
614
root 8.68686 17.4375 7.19041 11.057 183.203 2.06486
lowerback -0.0363794 1.84472 -1.9376
upperback -2.63624 2.36537 -0.228377
thorax -2.75523 1.19566 0.793632
lowerneck -6.1096 6.95007 5.97196
upperneck 8.98326 9.59339 -10.2722
head 4.47924 4.31737 -3.54061
rclavicle -2.5345e-015 -2.14687e-014
rhumerus -41.0176 16.5518 -86.8227
rradius 57.832
rwrist -10.9037
rhand -17.6739 -35.1817
rfingers 7.12502
rthumb 8.58507 -64.9872
lclavicle -2.5345e-015 -2.14687e-014
lhumerus -47.2166 -8.19133 83.4395
lradius 33.5299
lwrist 16.4805
lhand -8.12485 -18.7983
lfingers 7.12502
lthumb 17.7887 10.4081
rfemur 12.129 7.28848 29.6342
rtibia -9.54166e-015
rfoot -14 -8.34189
rtoes 2.4162
lfemur -43.1223 -4.64292 -18.1535
ltibia 24.8259
lfoot -13.409 11.9402
ltoes -15.7488
615
root 8.67363 17.409 7.02915 11.0884 183.14 2.1245
lowerback 0.00638762 1.95186 -1.87228
upperback -2.74993 2.49654 -0.416328
thorax -2.88914 1.25604 0.557057
lowerneck -5.8992 6.87268 6.12914
upperneck 8.74193 9.46047 -10.1522
head 4.36057 4.28205 -3.54737
rclavicle -1.05853e-014 5.1684e-015
rhumerus -41.2688 15.9934 -87.0939
rradius 57.64
rwrist -10.7142
rhand -17.7731 -34.5088
rfingers 7.12502
rthumb 8.48934 -64.3181
lclavicle -1.05853e-014 5.1684e-015
lhumerus -47.1913 -8.61034 83.2893
lradius 33.4979
lwrist 16.5276
lhand -8.34697 -19.034
lfingers 7.12502
lthumb 17.575 10.1916
rfemur 12.6721 6.86672 29.6273
rtibia -9.54166e-015
rfoot -13.5863 -7.93335
rtoes -0.648553
lfemur -43.3155 -3.70303 -18.8013
ltibia 25.7683
lfoot -13.1068 10.729
ltoes -14.6962
616
root 8.65655 17.3593 6.86909 11.109 183.201 2.30174
lowerback -0.11357 1.8951 -1.83225
upperback -2.77444 2.42376 -0.344998
thorax -2.84642 1.21889 0.613656
lowerneck -5.77636 6.89041 5.87065
upperneck 8.63658 9.48277 -9.91791
head 4.28596 4.30361 -3.43758
rclavicle 9.79014e-015 -2.38542e-015
rhumerus -41.3773 15.9504 -87.1804
rradius 57.4233
rwrist -10.692
rhand -17.0233 -34.0412
rfingers 7.12502
rthumb 9.21288 -63.82
lclavicle 9.79014e-015 -2.38542e-015
lhumerus -47.1424 -8.24065 83.1916
lradius 33.5435
lwrist 16.4367
lhand -8.47406 -19.5068
lfingers 7.12502
lthumb 17.4527 9.72975
rfemur 13.2431 6.347 29.7526
rtibia 3.18055e-015
rfoot -13.2605 -7.38223
rtoes -6.19081
lfemur -43.5481 -2.75508 -19.3357
ltibia 26.838
lfoot -12.3879 9.26201
ltoes -12.5381
617
root 8.6353 17.3413 6.70482 11.1772 183.257 2.57557
lowerback -0.679571 1.91558 -1.64403
upperback -2.55918 2.47384 -0.30117
thorax -2.3008 1.23811 0.577666
lowerneck -5.8842 6.81702 5.98943
upperneck 8.48982 9.37612 -10.0436
head 4.26265 4.25176 -3.50056
rclavicle 1.36664e-014 1.07344e-014
rhumerus -41.1056 15.8644 -87.1971
rradius 57.0874
rwrist -10.8619
rhand -17.7671 -33.6211
rfingers 7.12502
rthumb 8.49508 -63.4302
lclavicle 1.36664e-014 1.07344e-014
lhumerus -46.646 -8.01822 83.0532
lradius 33.5099
lwrist 16.4032
lhand -8.09578 -18.5483
lfingers 7.12502
lthumb 17.8167 10.6555
rfemur 13.6534 5.87245 29.8779
rtibia 2.8625e-014
rfoot -12.8468 -6.75965
rtoes 1.98664
lfemur -43.7248 -2.44376 -19.3696
ltibia 27.841
lfoot -10.8899 8.35067
ltoes -11.124
618
root 8.61445 17.3199 6.53531 10.9851 183.351 2.67597
lowerback -1.46898 1.92826 -1.49685
upperback -2.01859 2.52637 -0.407116
thorax -1.29193 1.25908 0.427915
lowerneck -5.85466 6.75199 6.4997
upperneck 8.02607 9.26007 -10.4613
head 4.15168 4.20795 -3.72331
rclavicle 2.15681e-014 1.98785e-015
rhumerus -40.4546 15.6166 -87.2671
rradius 56.5657
rwrist -10.9243
rhand -19.835 -32.7681
rfingers 7.12502
rthumb 6.49907 -62.6484
lclavicle 2.15681e-014 1.98785e-015
lhumerus -45.7725 -8.12837 82.8126
lradius 33.3762
lwrist 16.5354
lhand -7.86565 -18.3901
lfingers 7.12502
lthumb 18.0381 10.7934
rfemur 14.3997 5.28401 29.8635
rtibia -3.18055e-015
rfoot -12.4351 -6.13371
rtoes 4.27359
lfemur -43.6735 -2.29826 -19.5255
ltibia 28.8254
lfoot -9.01434 7.632
ltoes -12.0423
619
root 8.5936 17.323 6.36274 10.706 183.356 2.81116
lowerback -0.116317 2.05566 -1.4519
upperback -2.79279 2.64037 -0.470617
thorax -2.84521 1.31607 0.267059
lowerneck -5.39662 6.70014 6.72633
upperneck 8.65121 9.19978 -10.2956
head 4.26051 4.18589 -3.7232
rclavicle -6.95746e-015 1.11319e-014
rhumerus -41.9719 15.0472 -87.6832
rradius 56.2181
rwrist -10.5965
rhand -18.9292 -31.7304
rfingers 7.12502
rthumb 7.37345 -61.5819
lclavicle -6.95746e-015 1.11319e-014
lhumerus -46.8263 -8.48969 82.9242
lradius 33.2866
lwrist 16.5203
lhand -7.92847 -19.2371
lfingers 7.12502
lthumb 17.9777 9.95198
rfemur 15.2332 4.77243 29.8831
rtibia -4.13472e-014
rfoot -11.6416 -5.80235
rtoes 1.16342
lfemur -43.3933 -2.39646 -19.4111
ltibia 29.6465
lfoot -7.61172 7.34972
ltoes -12.1095
620
root 8.56744 17.3326 6.18888 10.659 183.178 2.759
lowerback 0.308306 2.14795 -1.63174
upperback -3.0351 2.7399 -0.516789
thorax -3.34348 1.36921 0.294052
lowerneck -5.51063 6.69897 6.76173
upperneck 8.9425 9.20435 -10.2897
head 4.36966 4.17643 -3.7212
rclavicle 3.99557e-014 -8.34896e-015
rhumerus -42.5901 14.6684 -87.7807
rradius 55.9557
rwrist -10.1908
rhand -18.0552 -32.0706
rfingers 7.12502
rthumb 8.21706 -61.8908
lclavicle 3.99557e-014 -8.34896e-015
lhumerus -46.9911 -8.41952 82.9434
lradius 33.2227
lwrist 16.324
lhand -7.7542 -19.1902
lfingers 7.12502
lthumb 18.1453 9.9834
rfemur 14.4914 4.44631 29.5909
rtibia 2.3933
rfoot -11.4455 -5.31518
rtoes -2.98705
lfemur -43.3253 -3.02163 -19.1287
ltibia 30.5732
lfoot -7.23079 7.61538
ltoes -9.20697
621
root 8.54019 17.3212 6.01399 10.5917 183.069 2.47848
lowerback 0.586018 2.08567 -2.11559
upperback -3.21796 2.62986 -0.474417
thorax -3.71338 1.32853 0.595588
lowerneck -5.46644 6.72444 6.67853
upperneck 9.13525 9.262 -10.4423
head 4.42938 4.183 -3.75133
rclavicle -9.64106e-015 -1.27222e-014
rhumerus -43.1747 14.9471 -87.9318
rradius 55.6354
rwrist -10.3331
rhand -19.4845 -32.8616
rfingers 7.12502
rthumb 6.8375 -62.7312
lclavicle -9.64106e-015 -1.27222e-014
lhumerus -47.4137 -8.00717 83.0276
lradius 33.4895
lwrist 16.1274
lhand -7.90512 -19.4221
lfingers 7.12502
lthumb 18.0001 9.76494
rfemur 13.3755 4.00874 29.0397
rtibia 5.60076
rfoot -11.6972 -4.5304
rtoes -5.52867
lfemur -43.3465 -3.40564 -19.2589
ltibia 31.604
lfoot -6.47137 7.34215
ltoes -7.29969
622
root 8.5171 17.3002 5.83836 10.4034 183.13 2.30648
lowerback 0.410204 2.05238 -2.20505
upperback -3.08549 2.58743 -0.634708
thorax -3.47217 1.30594 0.492535
lowerneck -5.18486 6.72393 6.65887
upperneck 8.85621 9.24778 -10.3265
head 4.28955 4.19968 -3.72421
rclavicle 1.82385e-014 1.19271e-014
rhumerus -43.3619 14.8701 -88.2617
rradius 55.143
rwrist -10.7353
rhand -20.0414 -32.2339
rfingers 7.12502
rthumb 6.29988 -62.1202
lclavicle 1.82385e-014 1.19271e-014
lhumerus -47.334 -8.12585 82.9251
lradius 33.6376
lwrist 16.0697
lhand -8.28574 -19.9001
lfingers 7.12502
lthumb 17.6339 9.32028
rfemur 12.6574 3.40284 28.6646
rtibia 8.49752
rfoot -11.9861 -3.74468
rtoes -7.0071
lfemur -43.3055 -3.46057 -19.5047
ltibia 32.6641
lfoot -5.31192 6.84108
ltoes -7.20505
623
root 8.49308 17.2932 5.65685 10.2885 183.101 2.02715
lowerback 0.282985 2.12517 -2.5124
upperback -2.97551 2.67789 -0.8296
thorax -3.29473 1.35434 0.468134
lowerneck -5.37121 6.70039 6.66478
upperneck 8.87389 9.1972 -10.0914
head 4.31076 4.18656 -3.64989
rclavicle -5.7896e-014 2.62396e-014
rhumerus -43.5129 14.5554 -88.51
rradius 54.5461
rwrist -10.981
rhand -18.2248 -32.036
rfingers 7.12502
rthumb 8.05338 -61.8625
lclavicle -5.7896e-014 2.62396e-014
lhumerus -46.9949 -8.37172 82.8695
lradius 33.4846
lwrist 15.9376
lhand -8.44576 -19.9233
lfingers 7.12502
lthumb 17.4799 9.31082
rfemur 11.9337 2.88303 28.1057
rtibia 11.2423
rfoot -11.877 -3.20078
rtoes -11.0883
lfemur -43.1502 -3.54936 -19.8979
ltibia 33.6741
lfoot -4.85277 6.96336
ltoes -6.40157
624
root 8.46601 17.2933 5.47618 10.1411 183.043 1.71674
lowerback 0.360893 2.15729 -2.88661
upperback -2.96024 2.70283 -0.973106
thorax -3.3356 1.37336 0.52543
lowerneck -5.61411 6.66566 6.70709
upperneck 9.17063 9.14518 -9.97224
head 4.43334 4.15502 -3.61388
rclavicle 1.46107e-014 -4.77083e-015
rhumerus -43.6923 14.363 -88.7803
rradius 53.7058
rwrist -11.0003
rhand -17.0009 -31.8561
rfingers 7.12502
rthumb 9.23448 -61.6339
lclavicle 1.46107e-014 -4.77083e-015
lhumerus -46.8821 -8.42171 82.8337
lradius 33.3655
lwrist 15.9159
lhand -8.36365 -19.6386
lfingers 7.12502
lthumb 17.5589 9.58844
rfemur 11.065 2.3641 27.4395
rtibia 14.0548
rfoot -11.2614 -2.60797
rtoes -14.9338
lfemur -42.8208 -3.54856 -20.4192
ltibia 34.5407
lfoot -4.50297 7.0299
ltoes -3.64329
625
root 8.44012 17.284 5.29393 9.92795 183.015 1.45096
lowerback 0.408725 2.13087 -3.17964
upperback -2.96424 2.65245 -1.06183
thorax -3.37565 1.35348 0.597187
lowerneck -5.53006 6.67159 6.91837
upperneck 9.42107 9.16995 -10.2648
head 4.52104 4.14893 -3.73782
rclavicle -2.93207e-015 2.8625e-014
rhumerus -43.9324 14.1732 -89.0282
rradius 52.7836
rwrist -10.6958
rhand -18.5674 -30.3721
rfingers 7.12502
rthumb 7.7227 -60.2111
lclavicle -2.93207e-015 2.8625e-014
lhumerus -47.0353 -8.58762 82.9624
lradius 33.4473
lwrist 16.2817
lhand -8.24315 -18.9918
lfingers 7.12502
lthumb 17.6749 10.2249
rfemur 10.1381 1.8117 26.7936
rtibia 17.1129
rfoot -10.5949 -1.5472
rtoes -15.2083
lfemur -42.3657 -3.49449 -20.9475
ltibia 35.2058
lfoot -4.07459 6.71031
ltoes -1.61567
